<svg id="svg" version="1.1" width="200" height="200" style="background-color: white;" xmlns="http://www.w3.org/2000/svg"><path d="M0.000 100.000 L 0.000 200.000 100.000 200.000 L 200.000 200.000 200.000 100.000 L 200.000 0.000 100.000 0.000 L 0.000 0.000 0.000 100.000 M74.800 66.200 C 75.517 66.917,76.000 70.376,76.000 74.794 L 76.000 82.188 85.129 73.594 L 94.259 65.000 104.929 65.000 C 111.895 65.000,116.017 65.417,116.800 66.200 C 117.519 66.919,118.000 70.396,118.000 74.881 L 118.000 82.362 126.906 73.647 L 135.811 64.933 147.156 65.216 L 158.500 65.500 158.783 76.823 L 159.067 88.147 136.368 111.604 L 113.669 135.061 102.084 134.780 L 90.500 134.500 90.209 125.606 L 89.918 116.712 80.594 125.856 L 71.269 135.000 60.170 135.000 C 46.791 135.000,47.000 135.208,47.000 121.835 L 47.000 112.538 56.230 103.269 L 65.460 94.000 57.802 94.000 C 47.249 94.000,47.000 93.674,47.000 79.863 C 47.000 73.816,47.466 67.998,48.035 66.934 C 48.972 65.183,50.233 65.000,61.335 65.000 C 69.541 65.000,73.997 65.397,74.800 66.200 " stroke="none" fill="#0053f1" fill-rule="evenodd"/></svg>